<?xml version="1.0" encoding="utf-8"?>
<!-- Generator: Adobe Illustrator 19.0.0, SVG Export Plug-In . SVG Version: 6.00 Build 0)  -->
<svg version="1.2" baseProfile="tiny" id="Layer_1" xmlns="http://www.w3.org/2000/svg" xmlns:xlink="http://www.w3.org/1999/xlink"
	 x="0px" y="0px" viewBox="0 0 256 256" xml:space="preserve">
<g id="XMLID_300_">
	<path id="XMLID_349_" fill="#456EB6" d="M53.013,127.998c0-22.505-0.005-45.01,0.002-67.515
		c0.005-15.819,11.872-27.86,27.699-27.893c31.45-0.066,62.901-0.068,94.351-0.001c16.126,0.034,27.903,11.931,27.914,28.106
		c0.03,45.081,0.028,90.162-0.007,135.243c-0.012,15.329-12.153,27.472-27.478,27.492c-31.664,0.041-63.327,0.039-94.991,0
		c-15.331-0.019-27.443-12.138-27.477-27.491C52.976,173.292,53.013,150.645,53.013,127.998z M94.965,150.998
		c-3.018,3.77-5.919,7.339-8.761,10.955c-5.571,7.087-11.302,14.061-16.6,21.348c-3.971,5.462-4.07,11.59-0.904,17.519
		c3.132,5.863,8.245,8.935,14.904,8.956c7.03,0.022,12.333-3.252,15.391-9.55c5.95-12.255,11.672-24.621,17.48-36.944
		c0.551-1.169,0.913-2.264,2.725-1.933c6.128,1.12,12.262,0.953,18.415-0.079c28.729-4.819,49.102-33.214,44.371-61.932
		c-5.036-30.57-32.878-50.597-63.292-45.526c-37.767,6.297-57.385,49.535-37.277,82.105
		C84.963,141.661,89.482,146.508,94.965,150.998z M180.849,206.398c2.838-0.006,5.125-2.332,5.09-5.175
		c-0.034-2.76-2.253-4.986-5.015-5.029c-2.864-0.045-5.172,2.207-5.189,5.062C175.717,204.111,177.998,206.404,180.849,206.398z
		 M70.067,54.549c-0.094,2.844,2.14,5.208,4.982,5.271c2.753,0.062,5.091-2.101,5.214-4.821c0.13-2.871-2.043-5.269-4.869-5.374
		C72.53,49.518,70.162,51.707,70.067,54.549z M185.935,54.629c-0.047-2.843-2.389-5.076-5.247-5.005
		c-2.846,0.071-5.048,2.424-4.953,5.293c0.091,2.737,2.383,4.926,5.138,4.908C183.714,59.806,185.982,57.478,185.935,54.629z"/>
	<path id="XMLID_332_" fill="#FFFFFF" d="M94.965,150.998c-5.483-4.49-10.002-9.337-13.548-15.082
		c-20.108-32.57-0.49-75.808,37.277-82.105c30.414-5.071,58.256,14.957,63.292,45.526c4.731,28.717-15.641,57.113-44.371,61.932
		c-6.153,1.032-12.287,1.199-18.415,0.079c-1.812-0.331-2.174,0.764-2.725,1.933c-5.808,12.324-11.529,24.69-17.48,36.944
		c-3.058,6.298-8.361,9.572-15.391,9.55c-6.659-0.021-11.773-3.093-14.904-8.956c-3.167-5.929-3.067-12.057,0.904-17.519
		c5.298-7.287,11.028-14.261,16.6-21.348C89.046,158.337,91.947,154.768,94.965,150.998z M83.74,202.994
		c0.479-0.063,1.043-0.12,1.601-0.212c4.415-0.729,6.761-3.749,8.521-7.535c7.656-16.464,15.361-32.905,23.042-49.357
		c0.72-1.542,1.502-3.066,2.066-4.666c0.485-1.377,0.22-2.736-1.185-3.51c-1.34-0.738-2.607-0.464-3.659,0.658
		c-0.339,0.362-0.638,0.761-0.95,1.147c-8.024,9.937-16.078,19.849-24.058,29.821c-4.61,5.761-9.173,11.562-13.615,17.453
		c-2.474,3.281-2.71,6.974-0.815,10.639C76.542,201.022,79.673,202.722,83.74,202.994z M141.622,107.529
		c-0.013-7.385-6.187-13.552-13.591-13.576c-7.392-0.023-13.603,6.123-13.652,13.511c-0.05,7.433,6.271,13.765,13.694,13.717
		C135.413,121.133,141.635,114.863,141.622,107.529z"/>
	<path id="XMLID_317_" fill="#FCCE48" d="M180.849,206.398c-2.851,0.006-5.132-2.287-5.114-5.143
		c0.017-2.855,2.325-5.106,5.189-5.062c2.762,0.043,4.982,2.269,5.015,5.029C185.974,204.065,183.687,206.391,180.849,206.398z"/>
	<path id="XMLID_314_" fill="#FCCE48" d="M70.067,54.549c0.094-2.842,2.462-5.031,5.327-4.924c2.825,0.105,4.998,2.504,4.869,5.374
		c-0.123,2.721-2.461,4.883-5.214,4.821C72.208,59.757,69.973,57.393,70.067,54.549z"/>
	<path id="XMLID_311_" fill="#FCCE48" d="M185.935,54.629c0.047,2.849-2.222,5.177-5.062,5.196
		c-2.756,0.018-5.048-2.172-5.138-4.908c-0.095-2.869,2.107-5.222,4.953-5.293C183.547,49.553,185.888,51.786,185.935,54.629z"/>
	<path id="XMLID_304_" fill="#5D5E5E" d="M83.74,202.994c-4.067-0.272-7.197-1.972-9.052-5.562
		c-1.894-3.665-1.659-7.357,0.815-10.639c4.442-5.891,9.005-11.692,13.615-17.453c7.98-9.972,16.034-19.884,24.058-29.821
		c0.312-0.386,0.611-0.786,0.95-1.147c1.051-1.122,2.318-1.396,3.659-0.658c1.405,0.774,1.67,2.133,1.185,3.51
		c-0.563,1.6-1.346,3.124-2.066,4.666c-7.681,16.452-15.386,32.893-23.042,49.357c-1.76,3.786-4.106,6.805-8.521,7.535
		C84.783,202.875,84.219,202.932,83.74,202.994z"/>
	<path id="XMLID_301_" fill="#00A25E" d="M141.622,107.529c0.013,7.335-6.209,13.604-13.549,13.652
		c-7.422,0.049-13.743-6.283-13.694-13.717c0.05-7.388,6.261-13.534,13.652-13.511C135.435,93.977,141.61,100.144,141.622,107.529z"
		/>
</g>
</svg>
